Coordinates
version=1
nRows=5
nColumns=40
inDegrees=yes

Units are S.I. units (second, meters, Newtons, ...)
Angles are in degrees.

endheader
time	pelvis_tilt	pelvis_list	pelvis_rotation	pelvis_tx	pelvis_ty	pelvis_tz	hip_flexion_r	hip_adduction_r	hip_rotation_r	knee_angle_r	knee_angle_r_beta	ankle_angle_r	subtalar_angle_r	mtp_angle_r	hip_flexion_l	hip_adduction_l	hip_rotation_l	knee_angle_l	knee_angle_l_beta	ankle_angle_l	subtalar_angle_l	mtp_angle_l	lumbar_extension	lumbar_bending	lumbar_rotation	arm_flex_r	arm_add_r	arm_rot_r	elbow_flex_r	pro_sup_r	wrist_flex_r	wrist_dev_r	arm_flex_l	arm_add_l	arm_rot_l	elbow_flex_l	pro_sup_l	wrist_flex_l	wrist_dev_l
     56.14000000	     -4.26357526	     -6.61038533	      1.58768875	      1.03649205	      0.93035486	      0.50294347	     11.18310036	      5.90809570	    -16.39699651	     12.89012352	     12.89012352	      8.81084329	      4.01208330	     -4.60282550	     35.00593652	    -12.81773506	      4.58918713	     71.58847036	     71.58847036	      3.91352778	    -17.06425280	      7.72424709	    -11.05910784	      7.07518587	      3.98483081	     18.36443423	    -15.86240917	      5.77282987	     46.37637274	     44.94579475	      0.00000000	      0.00000000	      8.41358994	    -10.61558513	      5.47640077	     42.09305093	     45.16150387	      0.00000000	      0.00000000
     56.15185714	     -4.28859080	     -6.54103089	      1.89324390	      1.03528005	      0.93083651	      0.50326943	     10.43310186	      5.98054987	    -16.39269766	     12.22827551	     12.22827551	      8.90940959	      3.94205725	     -4.67520932	     36.52576617	    -12.66498721	      4.45822369	     70.15117062	     70.15117062	      4.15268558	    -17.67651889	      7.74994514	    -11.07652898	      6.90344717	      3.63317803	     20.76841521	    -15.73373200	      5.77134658	     48.21333377	     44.90118424	      0.00000000	      0.00000000	      6.82813768	    -10.53675364	      5.71484845	     40.30854383	     45.12754139	      0.00000000	      0.00000000
     56.16371429	     -4.27573003	     -6.48256562	      2.17330780	      1.03409674	      0.93129043	      0.50357862	      9.60797439	      6.09239170	    -16.30921005	     11.46456878	     11.46456878	      8.83737847	      3.79060257	     -5.09447534	     37.85567354	    -12.53096806	      4.25124040	     68.50974614	     68.50974614	      4.60799932	    -18.04823325	      8.44155770	    -11.13758435	      6.78007164	      3.88999728	     22.49156734	    -16.48607218	      6.86220739	     51.46979656	     44.78198833	      0.00000000	      0.00000000	      6.17937858	    -10.02517767	      5.97951013	     36.85727902	     45.15102894	      0.00000000	      0.00000000
     56.17557143	     -4.36360576	     -6.41814640	      2.39372179	      1.03286414	      0.93145485	      0.50383224	      9.10471050	      6.11116174	    -16.32917973	     11.14009744	     11.14009744	      9.08190067	      3.77280708	     -5.11866735	     39.11284579	    -12.44476599	      3.87467651	     66.59782288	     66.59782288	      4.92333363	    -18.30825066	      8.70726910	    -11.10748323	      6.59288934	      4.34288686	     24.69571840	    -16.91947253	      6.55452829	     52.52238110	     44.77124879	      0.00000000	      0.00000000	      4.79207403	     -9.75983092	      6.13589227	     36.08729585	     45.11557166	      0.00000000	      0.00000000
     56.18742857	     -4.27370911	     -6.38171963	      2.74112836	      1.03188393	      0.93185433	      0.50393585	      8.08622662	      6.27504515	    -16.26867752	     10.16645658	     10.16645658	      9.07675818	      3.72332277	     -5.13797210	     40.08100305	    -12.17320143	      3.75769980	     64.53869790	     64.53869790	      5.93721393	    -18.46660331	     11.23081107	    -11.28989863	      6.55517708	      3.94246772	     26.50620983	    -17.13492736	      7.46079672	     56.67923685	     44.63554426	      0.00000000	      0.00000000	      4.03187595	     -9.56349548	      6.81059478	     32.38952613	     45.07305304	      0.00000000	      0.00000000
